<?xml version="1.0" encoding="utf-8"?>
<!-- Generator: Adobe Illustrator 24.2.0, SVG Export Plug-In . SVG Version: 6.00 Build 0)  -->
<svg version="1.1" id="Capa_1" xmlns="http://www.w3.org/2000/svg" xmlns:xlink="http://www.w3.org/1999/xlink" x="0px" y="0px"
	 viewBox="0 0 822.3 233.5" style="enable-background:new 0 0 822.3 233.5;" xml:space="preserve">
<style type="text/css">
	.st0{fill:#FFFFFF;}
	.st1{fill:#0F0F0F;}
	.st2{fill:url(#SVGID_1_);stroke:#39ADD4;stroke-width:3;stroke-miterlimit:10;}
	.st3{fill:url(#SVGID_2_);stroke:#39ADD4;stroke-width:3;stroke-miterlimit:10;}
	.st4{fill:url(#SVGID_3_);stroke:#39ADD4;stroke-width:3;stroke-miterlimit:10;}
	.st5{fill:url(#SVGID_4_);stroke:#39ADD4;stroke-width:3;stroke-miterlimit:10;}
	.st6{fill:url(#SVGID_5_);stroke:#39ADD4;stroke-width:3;stroke-miterlimit:10;}
	.st7{fill:url(#SVGID_6_);}
	.st8{fill:url(#SVGID_7_);}
	.st9{fill:url(#SVGID_8_);}
	.st10{fill:url(#SVGID_9_);}
	.st11{fill:url(#SVGID_10_);}
	.st12{fill:url(#SVGID_11_);}
</style>
<rect x="7.4" y="3.7" class="st0" width="807.5" height="226.1"/>
<path class="st1" d="M0,0v233.5h822.3V0H0z M799.5,212.2H242V21.3h557.5V212.2z"/>
<g>
	<g>
		
			<linearGradient id="SVGID_1_" gradientUnits="userSpaceOnUse" x1="331.1" y1="96.5" x2="331.1" y2="181.1" gradientTransform="matrix(1 0 0 -1 0 236)">
			<stop  offset="4.475343e-07" style="stop-color:#0175BE"/>
			<stop  offset="0.2615" style="stop-color:#0A7EC2"/>
			<stop  offset="0.6918" style="stop-color:#2397CB"/>
			<stop  offset="1" style="stop-color:#39ADD4"/>
		</linearGradient>
		<path class="st2" d="M379.5,54.9v21.6h-35.6v63h-25.6v-63h-35.6V54.9H379.5z"/>
		
			<linearGradient id="SVGID_2_" gradientUnits="userSpaceOnUse" x1="403.5" y1="96.5" x2="403.5" y2="181.1" gradientTransform="matrix(1 0 0 -1 0 236)">
			<stop  offset="4.475343e-07" style="stop-color:#0175BE"/>
			<stop  offset="0.2615" style="stop-color:#0A7EC2"/>
			<stop  offset="0.6918" style="stop-color:#2397CB"/>
			<stop  offset="1" style="stop-color:#39ADD4"/>
		</linearGradient>
		<path class="st3" d="M416.2,54.9v84.6h-25.4V54.9H416.2z"/>
		
			<linearGradient id="SVGID_3_" gradientUnits="userSpaceOnUse" x1="482.65" y1="95.2759" x2="482.65" y2="182.4136" gradientTransform="matrix(1 0 0 -1 0 236)">
			<stop  offset="4.475343e-07" style="stop-color:#0175BE"/>
			<stop  offset="0.2615" style="stop-color:#0A7EC2"/>
			<stop  offset="0.6918" style="stop-color:#2397CB"/>
			<stop  offset="1" style="stop-color:#39ADD4"/>
		</linearGradient>
		<path class="st4" d="M455.2,111.4c0,5.1,0.5,6.7,2.6,8c2.5,1.5,5.3,1.8,23.9,1.8c28.4,0,28.4,0,28.4-7.5c0-5.1-2-6.3-10.4-6.5
			l-20.8-0.8l-14-0.6l-7-0.3c-21.5-0.6-27.4-6-27.4-24.6c0-16.1,4.7-23.3,16.6-25.9c5.1-1,17-1.5,37.9-1.5c25.2,0,34.3,1.1,40.5,5.2
			c5.2,3.4,7.3,8.8,7.3,18.8c0,0.5,0,2.3-0.1,3.9H507c-0.3-4.7-0.6-5.8-2.6-7c-2.2-1.3-5.5-1.5-24.2-1.5c-22.4,0-24.2,0.5-24.2,6.7
			c0,3.2,1.2,4.8,3.9,5.5c2.3,0.6,9.5,1,27.8,1.5c28.6,0.9,34.2,1.5,39.8,4.9c6,3.8,8.2,9.5,8.2,21.3c0,14.7-3.6,21.9-12.6,25.2
			c-5.2,1.9-16.1,2.5-42,2.5c-26.9,0-37.5-1.1-43.6-4.9c-6-3.7-7.9-8.6-7.9-20.3v-4.1h25.6V111.4z"/>
		
			<linearGradient id="SVGID_4_" gradientUnits="userSpaceOnUse" x1="593.1" y1="96.6" x2="593.1" y2="181.201" gradientTransform="matrix(1 0 0 -1 0 236)">
			<stop  offset="4.475343e-07" style="stop-color:#0175BE"/>
			<stop  offset="0.2615" style="stop-color:#0A7EC2"/>
			<stop  offset="0.6918" style="stop-color:#2397CB"/>
			<stop  offset="1" style="stop-color:#39ADD4"/>
		</linearGradient>
		<path class="st5" d="M639.7,54.9v19.9h-68.3v12.3h64.9v18.6h-64.9v13.4h68.8v20.3H546V54.9H639.7z"/>
		
			<linearGradient id="SVGID_5_" gradientUnits="userSpaceOnUse" x1="708" y1="96.5443" x2="708" y2="181.1453" gradientTransform="matrix(1 0 0 -1 0 236)">
			<stop  offset="4.475343e-07" style="stop-color:#0175BE"/>
			<stop  offset="0.2615" style="stop-color:#0A7EC2"/>
			<stop  offset="0.6918" style="stop-color:#2397CB"/>
			<stop  offset="1" style="stop-color:#39ADD4"/>
		</linearGradient>
		<path class="st6" d="M657.2,54.9h60.1c28.2,0,28.2,0,33.4,3.3c6.2,3.9,8.1,9.5,8.1,24.2c0,12.6-1.2,17.4-5.6,20.8
			c-2.3,1.9-4.7,2.8-9.5,3.6c12.6,1.5,14.8,5.3,14.3,24.9v7.9h-24.5V135c0-9.5-0.5-12.6-2.4-14.7c-1.7-2-3.5-2.3-13.8-2.3H682v21.4
			h-24.8V54.9z M717,96.8c12.5-0.3,12.5-0.3,14.2-1.5c2-1.3,2.7-3.8,2.7-9.1c0-5.7-1-8.1-3.5-9.3c-1.7-0.8-2.1-0.8-13.3-0.9h-35
			v20.8H717z"/>
	</g>
</g>
<g>
	<g>
		
			<linearGradient id="SVGID_6_" gradientUnits="userSpaceOnUse" x1="102.9" y1="147.5" x2="217.9578" y2="147.5" gradientTransform="matrix(1 0 0 -1 0 236)">
			<stop  offset="2.237672e-07" style="stop-color:#DCDCDC"/>
			<stop  offset="0.3735" style="stop-color:#D9D9D9"/>
			<stop  offset="0.6439" style="stop-color:#D0D0D0"/>
			<stop  offset="0.8696" style="stop-color:#C1C1C1"/>
		</linearGradient>
		<path class="st7" d="M206.1,90.7l11.7-2.1l-3.4-19.4l-11.6,2c-1.5-3.8-3.6-7.3-6-10.5l7.6-9.1L189.3,39l-7.6,9
			c-3.5-1.9-7.4-3.3-11.4-4.2V31.9h-19.7v11.8c-4,0.9-7.9,2.3-11.4,4.1l-7.6-9.1l-15.1,12.7l7.6,9c-2.5,3.2-4.6,6.7-6.1,10.5
			l-11.7-2.1l-3.4,19.4l11.6,2c0.1,4.2,0.9,8.2,2,12l-10.3,5.9l9.9,17.1l10.2-5.9c2.7,3,5.8,5.6,9.2,7.8l-4.1,11.2l18.5,6.7l4-11.1
			c2.1,0.3,4.2,0.4,6.3,0.4c2,0,3.9-0.1,5.8-0.4l4.1,11.2l18.5-6.8l-4-11.1c3.4-2.2,6.6-4.8,9.3-7.8l10.3,5.9l9.9-17.1l-10.2-5.9
			C205.2,98.9,206,94.9,206.1,90.7z M136.6,88.6c0-13.1,10.6-23.7,23.7-23.7c13.1,0,23.7,10.6,23.7,23.7s-10.6,23.7-23.7,23.7
			C147.2,112.3,136.6,101.7,136.6,88.6z"/>
		
			<linearGradient id="SVGID_7_" gradientUnits="userSpaceOnUse" x1="217.9" y1="147.5" x2="102.8422" y2="147.5" gradientTransform="matrix(1 0 0 -1 0 236)">
			<stop  offset="2.237672e-07" style="stop-color:#C1C1C1"/>
			<stop  offset="9.934112e-02" style="stop-color:#C1C1C1"/>
			<stop  offset="1" style="stop-color:#C1C1C1"/>
		</linearGradient>
		<path class="st8" d="M167.2,35.1v8.7v2.5l2.5,0.6c3.7,0.8,7.3,2.2,10.6,3.9l2.3,1.2l1.6-2l5.5-6.6L200,52l-5.6,6.7l-1.6,1.9l1.5,2
			c2.3,3,4.2,6.3,5.6,9.8l1,2.4l2.5-0.4l8.5-1.5l2.3,13.2l-8.6,1.5l-2.5,0.4l-0.1,2.5c-0.2,3.8-0.8,7.5-2,11.1l-0.8,2.4l2.2,1.3
			l7.5,4.3l-6.7,11.6l-7.6-4.4l-2.2-1.3l-1.7,1.9c-2.6,2.8-5.5,5.2-8.7,7.2l-2.2,1.4l0.9,2.4l2.9,8.1l-12.6,4.6l-3-8.2l-0.9-2.4
			l-2.5,0.3c-1.8,0.2-3.6,0.3-5.4,0.3c-2,0-3.9-0.1-5.9-0.4l-2.5-0.4L151,133l-3,8.1l-12.6-4.6l3-8.2l0.9-2.4l-2.1-1.4
			c-3.2-2.1-6.1-4.5-8.6-7.3l-1.7-1.9l-2.2,1.3l-7.5,4.3l-6.7-11.6l7.5-4.4l2.2-1.3l-0.8-2.4c-1.1-3.6-1.8-7.4-1.9-11.1l-0.1-2.6
			l-2.5-0.4l-8.5-1.5l2.3-13.2l8.6,1.5l2.5,0.4l1-2.3c1.5-3.5,3.4-6.8,5.7-9.7l1.6-2l-1.6-2l-5.5-6.6l10.3-8.6l5.6,6.7l1.6,1.9
			l2.2-1.2c3.4-1.7,6.9-3,10.6-3.8l2.5-0.5v-2.6V35L167.2,35.1 M160.3,115.4c14.8,0,26.9-12,26.9-26.9s-12-26.9-26.9-26.9
			c-14.8,0-26.9,12-26.9,26.9S145.5,115.4,160.3,115.4 M170.4,31.9h-19.7v11.8c-4,0.9-7.9,2.3-11.4,4.1l-7.6-9.1l-15.1,12.7l7.6,9
			c-2.5,3.2-4.6,6.7-6.1,10.5l-11.7-2.1L103,88.2l11.6,2c0.1,4.2,0.9,8.2,2,12l-10.3,5.9l9.9,17.1l10.2-5.9c2.7,3,5.8,5.6,9.2,7.8
			l-4.1,11.2L150,145l4-11.1c2.1,0.3,4.2,0.4,6.3,0.4c2,0,3.9-0.1,5.8-0.4l4.1,11.2l18.5-6.8l-4-11.1c3.4-2.2,6.6-4.8,9.3-7.8
			l10.3,5.9l9.9-17.1l-10.2-5.9c1.2-3.8,2-7.8,2.2-11.9l11.7-2.1l-3.4-19.4l-11.6,2c-1.5-3.8-3.6-7.3-6-10.5l7.6-9.1L189.3,39
			l-7.6,9c-3.5-1.9-7.4-3.3-11.4-4.2L170.4,31.9L170.4,31.9z M160.3,112.3c-13.1,0-23.7-10.6-23.7-23.7s10.6-23.7,23.7-23.7
			c13.1,0,23.7,10.6,23.7,23.7S173.4,112.3,160.3,112.3L160.3,112.3z"/>
	</g>
	<g>
		<g>
			
				<linearGradient id="SVGID_8_" gradientUnits="userSpaceOnUse" x1="51" y1="75.2" x2="131.9" y2="75.2" gradientTransform="matrix(1 0 0 -1 0 236)">
				<stop  offset="2.237672e-07" style="stop-color:#DCDCDC"/>
				<stop  offset="0.3735" style="stop-color:#D9D9D9"/>
				<stop  offset="0.6439" style="stop-color:#D0D0D0"/>
				<stop  offset="0.8696" style="stop-color:#C1C1C1"/>
			</linearGradient>
			<path class="st9" d="M123.5,166.8l8.4-0.3l-0.5-14l-8.4,0.3c-0.7-2.8-1.8-5.5-3.2-8l6.3-5.7l-9.4-10.4l-6.2,5.6
				c-2.3-1.7-4.9-3.1-7.6-4.1l1.2-8.4l-13.9-1.9l-1.2,8.3c-2.9,0.2-5.8,0.8-8.4,1.8l-4.5-7.2l-11.9,7.4l4.4,7.1
				c-2.1,2-3.9,4.3-5.3,6.8l-8-2.6L51,154.8l8,2.6c-0.3,2.9-0.2,5.8,0.3,8.6l-7.8,3.2l5.3,13l7.8-3.1c1.6,2.4,3.5,4.5,5.7,6.4
				l-4,7.5l12.4,6.6l3.9-7.4c1.4,0.4,2.9,0.7,4.4,0.9c1.4,0.2,2.8,0.3,4.1,0.3l1.8,8.3l13.7-2.9l-1.7-8.2c2.6-1.2,5.1-2.7,7.3-4.5
				l6.7,5.2l8.6-11l-6.6-5.2C122,172.4,122.9,169.7,123.5,166.8z M74.7,158.4c1.3-9.2,9.8-15.6,19-14.3s15.6,9.8,14.3,19
				c-1.3,9.2-9.8,15.6-19,14.3C79.9,176.1,73.4,167.6,74.7,158.4z"/>
		</g>
		<g>
			
				<linearGradient id="SVGID_9_" gradientUnits="userSpaceOnUse" x1="131.9017" y1="75.2" x2="50.9923" y2="75.2" gradientTransform="matrix(1 0 0 -1 0 236)">
				<stop  offset="2.237672e-07" style="stop-color:#C1C1C1"/>
				<stop  offset="9.934112e-02" style="stop-color:#C1C1C1"/>
				<stop  offset="1" style="stop-color:#C1C1C1"/>
			</linearGradient>
			<path class="st10" d="M92,122.3l9.7,1.4l-0.9,6.3l-0.2,1.7l1.6,0.6c2.5,1,4.9,2.2,7.1,3.8l1.4,1l1.3-1.1l4.6-4.2l6.6,7.3
				l-4.7,4.2l-1.3,1.1l0.8,1.5c1.3,2.4,2.3,4.9,3,7.5l0.4,1.7l1.7-0.1l6.3-0.2l0.3,9.8l-6.3,0.2l-1.7,0.1l-0.3,1.7
				c-0.5,2.7-1.3,5.2-2.5,7.7l-0.7,1.5l1.3,1l4.9,3.9l-6,7.7l-5-3.9l-1.3-1l-1.3,1.1c-2.1,1.7-4.4,3.1-6.9,4.2l-1.6,0.7l0.4,1.7
				l1.3,6.1l-9.6,2l-1.3-6.2l-0.3-1.6h-1.7c-1.3,0-2.6-0.1-3.9-0.3c-1.4-0.2-2.8-0.5-4.1-0.9l-1.6-0.5l-0.8,1.5l-2.9,5.5L69,192
				l3-5.6l0.8-1.5l-1.3-1.1c-2.1-1.8-3.9-3.8-5.4-6l-1-1.4l-1.6,0.6l-5.8,2.3l-3.7-9.1l5.9-2.4l1.6-0.6l-0.3-1.7
				c-0.4-2.7-0.5-5.4-0.2-8.1l0.2-1.7l-1.6-0.5l-6-1.9l3-9.3l6,2l1.6,0.5l0.9-1.4c1.4-2.3,3.1-4.5,5-6.3l1.2-1.2l-0.9-1.5l-3.3-5.3
				l8.3-5.2l3.4,5.4l0.9,1.4l1.6-0.6c2.5-0.9,5.2-1.4,7.9-1.6l1.7-0.1l0.2-1.7L92,122.3 M91.4,179.7c9.4,0,17.4-7,18.7-16.3
				c0.7-5-0.6-10-3.6-14S99,142.7,94,142c-0.9-0.1-1.8-0.2-2.7-0.2c-9.4,0-17.4,7-18.7,16.3c-0.7,5,0.6,10,3.6,14s7.5,6.7,12.5,7.4
				C89.7,179.6,90.6,179.7,91.4,179.7 M90.2,119.9l-1.2,8.3c-2.9,0.2-5.8,0.8-8.4,1.8l-4.5-7.2l-11.9,7.4l4.4,7.1
				c-2.1,2-3.9,4.3-5.3,6.8l-8-2.6L51,154.8l8,2.6c-0.3,2.9-0.2,5.8,0.3,8.6l-7.8,3.2l5.3,13l7.8-3.1c1.6,2.4,3.5,4.5,5.7,6.4
				l-4,7.5l12.4,6.6l3.9-7.4c1.4,0.4,2.9,0.7,4.4,0.9c1.4,0.2,2.8,0.3,4.1,0.3l1.8,8.3l13.7-2.9l-1.7-8.2c2.6-1.2,5.1-2.7,7.3-4.5
				l6.7,5.2l8.6-11l-6.6-5.2c1.2-2.5,2.2-5.3,2.7-8.2l8.4-0.3l-0.5-14l-8.4,0.3c-0.7-2.8-1.8-5.5-3.2-8l6.3-5.7l-9.4-10.4l-6.2,5.6
				c-2.3-1.7-4.9-3.1-7.6-4.1l1.2-8.4L90.2,119.9L90.2,119.9z M91.4,177.6c-0.8,0-1.6-0.1-2.4-0.2c-9.2-1.3-15.6-9.8-14.3-19
				c1.2-8.4,8.4-14.5,16.7-14.5c0.8,0,1.6,0.1,2.4,0.2c9.2,1.3,15.6,9.8,14.3,19C106.9,171.5,99.7,177.6,91.4,177.6L91.4,177.6z"/>
		</g>
	</g>
	<g>
		<g>
			
				<linearGradient id="SVGID_10_" gradientUnits="userSpaceOnUse" x1="35.0929" y1="147.55" x2="100.4115" y2="147.55" gradientTransform="matrix(1 0 0 -1 0 236)">
				<stop  offset="2.237672e-07" style="stop-color:#DCDCDC"/>
				<stop  offset="0.3735" style="stop-color:#D9D9D9"/>
				<stop  offset="0.6439" style="stop-color:#D0D0D0"/>
				<stop  offset="0.8696" style="stop-color:#C1C1C1"/>
			</linearGradient>
			<path class="st11" d="M94,85.1l6.4-2.4L96.5,72l-6.4,2.3c-1.3-2-2.8-3.8-4.5-5.4L89,63l-9.9-5.7l-3.4,5.9
				c-2.2-0.7-4.5-1.1-6.9-1.2l-1.2-6.7l-11.2,2l1.2,6.7c-2.2,0.9-4.2,2.1-6.1,3.5l-5.3-4.4l-7.3,8.7l5.2,4.4
				c-1.1,2.1-1.9,4.3-2.4,6.6h-6.8v11.4h6.8c0.5,2.3,1.3,4.5,2.4,6.6l-5.2,4.4l7.3,8.7l5.2-4.4c1.8,1.4,3.9,2.6,6,3.5l-1.2,6.7
				l11.2,1.9l1.2-6.7c1.2,0,2.4-0.2,3.6-0.4c1.1-0.2,2.2-0.5,3.3-0.8l3.4,5.9L89,114l-3.4-5.9c1.7-1.6,3.2-3.4,4.5-5.3l6.4,2.3
				l3.9-10.7L94,92.1C94.3,89.9,94.3,87.5,94,85.1z M54.3,91c-1.3-7.4,3.6-14.5,11-15.8s14.5,3.6,15.8,11s-3.6,14.5-11,15.8
				S55.6,98.4,54.3,91z"/>
		</g>
		<g>
			
				<linearGradient id="SVGID_11_" gradientUnits="userSpaceOnUse" x1="100.4" y1="147.45" x2="35.0814" y2="147.45" gradientTransform="matrix(1 0 0 -1 0 236)">
				<stop  offset="2.237672e-07" style="stop-color:#C1C1C1"/>
				<stop  offset="9.934112e-02" style="stop-color:#C1C1C1"/>
				<stop  offset="1" style="stop-color:#C1C1C1"/>
			</linearGradient>
			<path class="st12" d="M66,57.9l0.8,4.7l0.3,1.7l1.7,0.1c2.2,0.1,4.3,0.5,6.3,1.1l1.6,0.5l0.9-1.5l2.3-4.1l6.2,3.6l-2.3,4L83,69.5
				l1.2,1.1c1.6,1.5,3,3.1,4.1,4.9l0.9,1.4l1.6-0.6l4.4-1.6l2.5,6.7L93.3,83l-1.6,0.6l0.2,1.7c0.3,2.1,0.3,4.3,0,6.4l-0.2,1.7
				l1.6,0.6l4.4,1.6l-2.4,6.7l-4.5-1.6l-1.6-0.6l-0.9,1.4c-1.2,1.8-2.6,3.5-4.1,4.9l-1.3,1.1l0.9,1.5l2.3,4l-6.2,3.6l-2.4-4.1
				l-0.8-1.5l-1.6,0.5c-1,0.3-2,0.6-3,0.7c-1.1,0.2-2.2,0.3-3.3,0.4L67,113l-0.3,1.7l-0.8,4.6l-7-1.2l0.8-4.7l0.3-1.7l-1.6-0.6
				c-2-0.8-3.9-1.9-5.6-3.2l-1.3-1l-1.3,1.1l-3.6,3l-4.6-5.5l3.6-3.1l1.3-1.1l-0.8-1.5c-1-1.9-1.7-3.9-2.2-6l-0.4-1.7h-1.7h-4.7
				v-7.2h4.7h1.7l0.4-1.6c0.5-2.1,1.2-4.1,2.2-6l0.8-1.5l-1.3-1.1l-3.6-3l4.6-5.5l3.6,3l1.3,1.1l1.3-1c1.7-1.3,3.6-2.4,5.6-3.2
				l1.6-0.6l-0.3-1.7L59,59.1L66,57.9 M67.7,104.3c0.9,0,1.9-0.1,2.8-0.2c8.6-1.5,14.3-9.7,12.7-18.3c-1.3-7.5-7.9-13-15.5-13
				c-0.9,0-1.9,0.1-2.8,0.2c-4.1,0.7-7.8,3.1-10.2,6.5c-2.4,3.5-3.3,7.6-2.6,11.8C53.6,98.9,60.1,104.3,67.7,104.3 M67.7,55.4
				l-11.2,2l1.2,6.7c-2.2,0.9-4.2,2.1-6.1,3.5l-5.3-4.4L39,71.9l5.2,4.4c-1.1,2.1-1.9,4.3-2.4,6.6H35v11.4h6.8
				c0.5,2.3,1.3,4.5,2.4,6.6l-5.2,4.4l7.3,8.7l5.2-4.4c1.8,1.4,3.9,2.6,6,3.5l-1.2,6.7l11.2,1.9l1.2-6.7c1.2,0,2.4-0.2,3.6-0.4
				c1.1-0.2,2.2-0.5,3.3-0.8l3.4,5.9l10-5.7l-3.4-5.9c1.7-1.6,3.2-3.4,4.5-5.3l6.4,2.3l3.9-10.7L94,92.1c0.3-2.3,0.3-4.6,0-7
				l6.4-2.4L96.5,72l-6.4,2.3c-1.3-2-2.8-3.8-4.5-5.4L89,63l-9.9-5.7l-3.4,5.9c-2.2-0.7-4.5-1.1-6.9-1.2L67.7,55.4L67.7,55.4z
				 M67.7,102.2c-6.5,0-12.2-4.6-13.4-11.2c-1.3-7.4,3.6-14.5,11-15.8c0.8-0.1,1.6-0.2,2.4-0.2c6.5,0,12.2,4.6,13.4,11.3
				c1.3,7.4-3.6,14.5-11,15.8C69.3,102.2,68.5,102.2,67.7,102.2L67.7,102.2z"/>
		</g>
	</g>
</g>
<g>
	<path d="M282.1,175.1c0.9,0.6,2.3,1.1,3.8,1.1c2.2,0,3.4-1.1,3.4-2.8c0-1.5-0.9-2.4-3.1-3.2c-2.7-0.9-4.3-2.3-4.3-4.6
		c0-2.5,2.1-4.4,5.3-4.4c1.7,0,2.9,0.4,3.6,0.8l-0.6,1.7c-0.5-0.3-1.6-0.8-3.1-0.8c-2.2,0-3.1,1.3-3.1,2.4c0,1.5,1,2.3,3.2,3.1
		c2.8,1.1,4.2,2.4,4.2,4.8c0,2.5-1.8,4.7-5.7,4.7c-1.6,0-3.3-0.5-4.2-1.1L282.1,175.1z"/>
	<path d="M312,170h-6.3v5.9h7.1v1.8h-9.2v-16.3h8.8v1.8h-6.7v5.2h6.3L312,170L312,170z"/>
	<path d="M324.8,161.5c1.1-0.2,2.6-0.4,4.1-0.4c2.2,0,3.7,0.4,4.7,1.3c0.8,0.7,1.3,1.8,1.3,3.1c0,2.1-1.4,3.6-3.1,4.2v0.1
		c1.2,0.4,2,1.6,2.4,3.3c0.5,2.3,0.9,3.8,1.3,4.5h-2.2c-0.3-0.5-0.6-1.9-1.1-3.9c-0.5-2.2-1.4-3.1-3.3-3.2h-2v7.1h-2.1L324.8,161.5
		L324.8,161.5z M326.9,169h2.2c2.3,0,3.7-1.2,3.7-3.1c0-2.1-1.5-3-3.8-3c-1,0-1.7,0.1-2.1,0.2L326.9,169L326.9,169z"/>
	<path d="M351,177.6l-5.3-16.3h2.3l2.5,8c0.7,2.2,1.3,4.2,1.7,6.1h0.1c0.5-1.9,1.1-3.9,1.9-6.1l2.8-8.1h2.3l-5.8,16.3H351V177.6z"/>
	<path d="M372.3,161.3v16.3h-2.1v-16.3H372.3z"/>
	<path d="M396.6,177.1c-0.8,0.4-2.3,0.8-4.3,0.8c-4.6,0-8-2.9-8-8.3c0-5.1,3.5-8.6,8.5-8.6c2,0,3.3,0.4,3.9,0.7l-0.5,1.7
		c-0.8-0.4-1.9-0.7-3.3-0.7c-3.8,0-6.4,2.4-6.4,6.7c0,4,2.3,6.5,6.3,6.5c1.3,0,2.6-0.3,3.5-0.7L396.6,177.1z"/>
	<path d="M410.6,161.3v16.3h-2.1v-16.3H410.6z"/>
	<path d="M437.5,169.3c0,5.6-3.4,8.6-7.6,8.6c-4.3,0-7.3-3.4-7.3-8.3c0-5.2,3.2-8.6,7.6-8.6C434.6,161.1,437.5,164.5,437.5,169.3z
		 M424.8,169.6c0,3.5,1.9,6.6,5.2,6.6c3.3,0,5.2-3.1,5.2-6.8c0-3.2-1.7-6.6-5.2-6.6C426.6,162.8,424.8,166,424.8,169.6z"/>
	<path d="M449.2,175.1c0.9,0.6,2.3,1.1,3.8,1.1c2.2,0,3.4-1.1,3.4-2.8c0-1.5-0.9-2.4-3.1-3.2c-2.7-0.9-4.3-2.3-4.3-4.6
		c0-2.5,2.1-4.4,5.3-4.4c1.7,0,2.9,0.4,3.6,0.8l-0.6,1.7c-0.5-0.3-1.6-0.8-3.1-0.8c-2.2,0-3.1,1.3-3.1,2.4c0,1.5,1,2.3,3.2,3.1
		c2.8,1.1,4.2,2.4,4.2,4.8c0,2.5-1.8,4.7-5.7,4.7c-1.6,0-3.3-0.5-4.2-1.1L449.2,175.1z"/>
	<path d="M485,161.5c1-0.2,2.3-0.3,4.1-0.3c2.1,0,3.6,0.5,4.6,1.4c0.9,0.8,1.4,2,1.4,3.4c0,1.5-0.4,2.6-1.3,3.5
		c-1.1,1.2-2.9,1.8-5,1.8c-0.6,0-1.2,0-1.7-0.2v6.5H485V161.5z M487.1,169.4c0.5,0.1,1.1,0.2,1.7,0.2c2.6,0,4.1-1.3,4.1-3.5
		s-1.5-3.2-3.9-3.2c-0.9,0-1.6,0.1-2,0.2L487.1,169.4L487.1,169.4z"/>
	<path d="M507.2,161.5c1.1-0.2,2.6-0.4,4.1-0.4c2.2,0,3.7,0.4,4.7,1.3c0.8,0.7,1.3,1.8,1.3,3.1c0,2.1-1.4,3.6-3.1,4.2v0.1
		c1.2,0.4,2,1.6,2.4,3.3c0.5,2.3,0.9,3.8,1.3,4.5h-2.2c-0.3-0.5-0.6-1.9-1.1-3.9c-0.5-2.2-1.4-3.1-3.3-3.2h-2v7.1h-2.1L507.2,161.5
		L507.2,161.5z M509.3,169h2.2c2.3,0,3.7-1.2,3.7-3.1c0-2.1-1.5-3-3.8-3c-1,0-1.7,0.1-2.1,0.2L509.3,169L509.3,169z"/>
	<path d="M543.5,169.3c0,5.6-3.4,8.6-7.6,8.6c-4.3,0-7.3-3.4-7.3-8.3c0-5.2,3.2-8.6,7.6-8.6C540.6,161.1,543.5,164.5,543.5,169.3z
		 M530.8,169.6c0,3.5,1.9,6.6,5.2,6.6s5.2-3.1,5.2-6.8c0-3.2-1.7-6.6-5.2-6.6S530.8,166,530.8,169.6z"/>
	<path d="M555.4,161.3h8.8v1.8h-6.7v5.4h6.2v1.7h-6.2v7.4h-2.1V161.3z"/>
	<path d="M584.9,170h-6.3v5.9h7.1v1.8h-9.2v-16.3h8.8v1.8h-6.7v5.2h6.3L584.9,170L584.9,170z"/>
	<path d="M597.4,175.1c0.9,0.6,2.3,1.1,3.8,1.1c2.2,0,3.4-1.1,3.4-2.8c0-1.5-0.9-2.4-3.1-3.2c-2.7-0.9-4.3-2.3-4.3-4.6
		c0-2.5,2.1-4.4,5.3-4.4c1.7,0,2.9,0.4,3.6,0.8l-0.6,1.7c-0.5-0.3-1.6-0.8-3.1-0.8c-2.2,0-3.1,1.3-3.1,2.4c0,1.5,1,2.3,3.2,3.1
		c2.8,1.1,4.2,2.4,4.2,4.8c0,2.5-1.8,4.7-5.7,4.7c-1.6,0-3.3-0.5-4.2-1.1L597.4,175.1z"/>
	<path d="M620.9,161.3v16.3h-2.1v-16.3H620.9z"/>
	<path d="M647.8,169.3c0,5.6-3.4,8.6-7.6,8.6c-4.3,0-7.3-3.4-7.3-8.3c0-5.2,3.2-8.6,7.6-8.6C644.9,161.1,647.8,164.5,647.8,169.3z
		 M635.1,169.6c0,3.5,1.9,6.6,5.2,6.6s5.2-3.1,5.2-6.8c0-3.2-1.7-6.6-5.2-6.6C636.9,162.8,635.1,166,635.1,169.6z"/>
	<path d="M659.8,177.6v-16.3h2.3l5.2,8.2c1.2,1.9,2.1,3.6,2.9,5.3h0.1c-0.2-2.2-0.2-4.2-0.2-6.7v-6.8h2v16.3H670l-5.2-8.3
		c-1.1-1.8-2.2-3.7-3-5.5h-0.1c0.1,2.1,0.2,4,0.2,6.7v7h-2.1V177.6z"/>
	<path d="M687.6,172.5l-1.7,5.1h-2.2l5.6-16.3h2.5l5.6,16.3h-2.3l-1.7-5.1H687.6z M693,170.9l-1.6-4.7c-0.4-1.1-0.6-2-0.8-3h-0.1
		c-0.2,1-0.5,2-0.8,2.9l-1.6,4.7h4.9V170.9z"/>
	<path d="M709,161.3h2.1v14.5h7v1.8H709V161.3z"/>
	<path d="M738.1,170h-6.3v5.9h7.1v1.8h-9.2v-16.3h8.8v1.8h-6.7v5.2h6.3L738.1,170L738.1,170z"/>
	<path d="M750.6,175.1c0.9,0.6,2.3,1.1,3.8,1.1c2.2,0,3.4-1.1,3.4-2.8c0-1.5-0.9-2.4-3.1-3.2c-2.7-0.9-4.3-2.3-4.3-4.6
		c0-2.5,2.1-4.4,5.3-4.4c1.7,0,2.9,0.4,3.6,0.8l-0.6,1.7c-0.5-0.3-1.6-0.8-3.1-0.8c-2.2,0-3.1,1.3-3.1,2.4c0,1.5,1,2.3,3.2,3.1
		c2.8,1.1,4.2,2.4,4.2,4.8c0,2.5-1.8,4.7-5.7,4.7c-1.6,0-3.3-0.5-4.2-1.1L750.6,175.1z"/>
</g>
</svg>
